<?xml version="1.0" standalone="no"?>
<!DOCTYPE svg PUBLIC "-//W3C//DTD SVG 20010904//EN"
 "http://www.w3.org/TR/2001/REC-SVG-20010904/DTD/svg10.dtd">
<svg version="1.0" xmlns="http://www.w3.org/2000/svg"
 width="436.000000pt" height="305.000000pt" viewBox="0 0 436.000000 305.000000"
 preserveAspectRatio="xMidYMid meet">

<g transform="translate(0.000000,305.000000) scale(0.100000,-0.100000)"
fill="#000000" stroke="none">
<path d="M2016 2931 c-3 -4 -22 -7 -42 -5 -27 2 -34 -1 -30 -12 4 -10 -3 -14
-23 -14 -36 0 -61 -28 -61 -68 0 -32 14 -50 25 -32 13 20 54 9 89 -24 43 -40
47 -76 12 -111 -24 -24 -84 -42 -110 -32 -24 9 -45 50 -56 105 -15 82 -45 113
-121 127 -89 17 -215 -60 -397 -243 -106 -106 -177 -168 -311 -270 -29 -22
-23 -57 8 -47 11 3 21 0 24 -9 4 -11 22 -13 79 -10 109 6 143 10 157 18 7 5
29 10 49 12 66 7 77 9 100 23 13 7 29 10 37 8 7 -3 21 0 31 7 33 23 77 27 108
11 15 -8 36 -15 45 -15 10 0 40 -11 67 -25 27 -14 68 -30 92 -35 48 -12 108
-48 116 -70 3 -8 11 -23 18 -32 10 -14 9 -20 -5 -36 -10 -11 -23 -49 -29 -84
-10 -61 -12 -65 -35 -60 -15 3 -29 -1 -35 -9 -7 -11 -11 -11 -15 -1 -6 14 -53
17 -53 2 0 -5 -11 -10 -24 -10 -21 0 -24 -6 -28 -39 -4 -51 -1 -61 23 -61 11
0 22 -6 25 -13 6 -16 34 -18 52 -4 9 7 16 7 24 -1 17 -17 45 -15 52 3 4 12 14
14 38 10 18 -4 50 -8 71 -9 21 -2 39 -5 41 -7 2 -2 -5 -32 -15 -66 l-20 -63
-160 -2 -160 -3 105 -80 c63 -47 105 -86 103 -95 -1 -8 -18 -20 -37 -26 -19
-6 -36 -18 -39 -25 -4 -12 -2 -12 12 0 10 7 17 9 17 3 0 -5 -7 -15 -15 -22 -8
-7 -15 -21 -15 -31 0 -24 -17 -25 -24 -1 -3 9 -3 -2 0 -25 5 -34 1 -48 -15
-69 -25 -32 -27 -71 -5 -102 17 -25 34 -29 34 -7 0 23 20 18 29 -7 10 -25 -4
-51 -17 -33 -4 6 -24 11 -45 11 -48 2 -110 44 -149 99 -33 48 -36 69 -8 62 11
-3 20 -3 20 0 0 3 -13 48 -30 100 -16 51 -30 102 -30 113 0 31 -17 24 -44 -19
-36 -57 -79 -221 -57 -221 5 0 13 5 16 10 13 20 24 8 59 -66 29 -62 34 -79 25
-96 -17 -32 -37 -4 -53 76 -8 37 -17 71 -21 74 -5 5 -19 -11 -47 -52 -17 -25
-23 16 -22 151 1 136 0 144 -18 140 -13 -4 -18 1 -19 16 0 18 -4 15 -15 -12
-9 -19 -26 -48 -40 -66 -13 -18 -24 -36 -24 -41 0 -5 11 7 24 26 22 33 71 69
80 59 2 -2 -1 -42 -6 -89 -9 -82 -1 -174 21 -232 l8 -23 8 25 c4 14 14 36 22
49 12 19 17 21 24 10 5 -8 9 -22 9 -31 0 -10 9 -43 21 -74 19 -51 23 -55 37
-41 14 14 17 12 35 -21 20 -38 65 -92 78 -92 4 0 5 9 2 20 -7 25 -6 25 45 0
45 -22 142 -43 170 -38 9 2 -21 11 -66 21 -46 10 -82 20 -79 23 4 5 130 -20
190 -38 21 -6 33 -14 27 -18 -6 -4 8 -15 30 -25 49 -22 90 -68 90 -100 0 -12
-13 -36 -28 -53 -26 -28 -30 -29 -79 -22 -28 5 -66 16 -83 25 -18 9 -30 12
-26 7 7 -12 -31 -46 -71 -62 -55 -21 -205 -9 -285 24 -38 16 -68 32 -68 37 0
5 10 14 23 20 l22 10 -24 -5 c-28 -6 -116 26 -186 67 -27 16 -52 31 -55 34 -8
7 24 23 50 23 24 0 24 1 -6 16 -42 20 -164 140 -164 160 0 14 7 15 48 9 l47
-7 -31 34 c-59 65 -114 151 -114 180 0 10 10 13 37 10 l37 -5 -26 32 c-31 36
-63 117 -72 184 -7 47 -7 48 14 37 12 -6 24 -9 27 -6 3 3 -6 11 -21 17 -17 8
-30 25 -36 48 -16 57 -24 156 -13 176 9 15 13 14 42 -16 18 -19 39 -46 47 -61
8 -16 17 -28 20 -28 2 0 0 9 -6 19 -5 11 -10 36 -10 55 0 37 27 116 39 116 4
0 20 -50 36 -112 17 -61 31 -105 33 -97 1 8 -4 36 -12 63 -17 56 -10 78 50
153 34 41 100 90 110 80 7 -7 -16 -136 -31 -173 -7 -17 -27 -48 -46 -70 l-33
-39 45 41 c46 44 87 69 96 60 9 -9 -37 -132 -62 -166 -31 -42 -32 -54 -2 -20
28 32 77 70 89 70 5 0 7 -12 4 -27 -3 -16 -8 -46 -11 -68 -4 -37 -4 -37 10 10
8 28 15 65 15 84 l0 33 -26 -17 c-14 -9 -27 -15 -30 -13 -2 2 5 28 16 56 11
29 20 61 20 72 0 17 -3 18 -31 8 -16 -6 -32 -9 -34 -7 -2 2 3 31 11 64 18 79
18 135 0 135 -22 0 -112 -86 -148 -142 l-33 -50 -7 38 c-5 22 -11 45 -13 53
-9 24 -33 -7 -57 -71 l-21 -60 -30 32 c-16 17 -34 29 -40 27 -19 -6 -28 -76
-17 -136 5 -31 16 -95 24 -143 8 -48 26 -113 40 -144 31 -67 32 -74 8 -74 -10
0 -21 -3 -25 -6 -8 -8 37 -97 79 -157 19 -26 34 -49 34 -52 0 -3 -13 -5 -29
-5 -17 0 -32 -4 -36 -9 -7 -12 84 -122 126 -152 l31 -22 -27 -14 -27 -15 32
-23 c17 -13 70 -42 116 -65 46 -23 82 -45 79 -50 -7 -12 35 -33 115 -58 132
-40 236 -37 330 11 40 21 49 22 80 11 72 -26 138 -6 155 47 7 20 8 19 26 -10
30 -49 93 -62 167 -34 18 7 38 2 82 -20 49 -25 72 -30 137 -30 114 -1 283 46
283 79 0 7 37 31 83 54 152 78 171 94 121 106 l-26 7 46 39 c26 22 62 61 82
86 37 48 34 62 -14 62 -28 0 -29 -3 31 85 26 39 51 85 56 103 9 30 8 32 -15
32 -30 0 -30 9 1 69 30 60 79 333 69 386 -9 49 -21 52 -59 15 l-33 -32 -16 49
c-19 56 -44 96 -56 88 -4 -2 -11 -26 -15 -52 -6 -42 -9 -45 -19 -29 -44 73
-148 176 -178 176 -12 0 -10 -56 6 -130 8 -36 12 -67 10 -69 -1 -2 -17 1 -33
7 -38 13 -39 5 -11 -75 22 -62 20 -75 -8 -50 -10 10 -22 17 -25 17 -11 0 -8
-52 7 -105 l14 -50 -5 64 c-6 60 -5 63 13 53 11 -6 32 -23 47 -38 32 -31 35
-24 8 20 -22 37 -55 135 -48 142 9 9 50 -16 96 -60 44 -40 44 -40 18 -6 -54
69 -59 80 -73 161 -8 45 -12 84 -9 87 8 9 85 -50 114 -87 16 -20 36 -51 45
-69 16 -31 16 -37 1 -85 -9 -29 -20 -59 -24 -67 -4 -8 -6 -22 -3 -29 5 -14 72
208 72 236 0 7 4 13 9 13 16 0 43 -87 39 -128 l-3 -39 43 49 c24 26 48 46 53
42 23 -14 -3 -213 -30 -222 -6 -2 -36 -24 -67 -50 -44 -36 -57 -43 -64 -31 -5
7 -6 25 -3 38 4 16 2 22 -5 17 -6 -3 -13 2 -16 11 -3 10 -4 3 -2 -16 2 -26 -1
-35 -16 -39 -34 -8 -36 -72 -2 -72 18 0 18 -24 0 -39 -8 -7 -17 -28 -21 -49
-8 -45 -21 -62 -46 -62 -16 0 -19 -7 -18 -42 0 -24 3 -37 6 -30 7 19 23 4 16
-16 -3 -9 13 1 36 23 40 38 51 52 32 40 -18 -11 -29 27 -19 69 18 81 137 226
185 226 38 0 -25 -191 -76 -232 l-26 -21 43 7 c36 5 42 4 42 -12 0 -26 -64
-130 -108 -174 l-36 -38 43 3 c28 1 46 -3 48 -10 6 -16 -123 -141 -162 -159
-25 -11 -27 -13 -8 -14 28 0 53 -10 53 -21 0 -10 -80 -53 -170 -91 -36 -15
-58 -27 -50 -27 32 -2 -16 -30 -92 -55 -93 -32 -219 -36 -271 -10 -42 21 -68
45 -61 55 2 5 -15 0 -38 -11 -56 -25 -129 -26 -151 -2 -9 10 -20 33 -23 50 -6
28 -2 37 30 66 20 19 60 44 88 55 30 11 44 20 33 21 -28 2 61 28 115 34 38 4
34 2 -25 -14 l-70 -20 60 6 c33 3 86 16 118 29 l59 23 -6 -26 c-6 -24 -2 -23
35 18 23 25 46 58 51 73 8 22 13 25 24 16 8 -6 15 -21 15 -33 1 -20 2 -20 6
-1 2 11 10 36 18 55 8 19 20 58 27 85 l14 50 19 -30 c16 -23 21 -51 23 -127 3
-80 6 -97 17 -88 7 6 10 20 7 32 -3 15 -2 19 7 14 6 -4 9 -12 6 -17 -9 -13 2
-11 36 7 20 10 29 21 25 30 -3 8 10 40 30 71 20 32 32 59 27 64 -5 5 -19 -14
-32 -47 -21 -50 -26 -55 -48 -49 -14 3 -31 1 -39 -5 -10 -9 -15 -6 -20 14 -3
15 -3 39 1 54 22 86 28 166 19 242 -5 44 -6 80 -1 80 19 0 59 -36 82 -74 14
-22 25 -36 25 -30 0 6 -14 30 -31 54 -17 23 -37 59 -44 79 -12 33 -14 34 -14
9 -1 -21 -5 -25 -20 -21 -19 5 -19 0 -14 -105 3 -60 2 -131 -1 -157 l-8 -48
-30 37 c-17 20 -32 35 -34 33 -2 -2 -8 -28 -14 -58 -11 -59 -29 -109 -39 -109
-3 0 -12 9 -19 21 -11 18 -10 26 12 64 15 24 26 50 26 57 0 7 -14 -12 -31 -42
-47 -82 -96 -138 -142 -161 -22 -12 -88 -32 -146 -45 -58 -13 -134 -37 -167
-54 -34 -16 -64 -30 -68 -30 -3 0 -6 29 -6 64 l0 65 56 25 57 26 -34 23 c-56
37 -79 81 -79 149 0 56 1 58 20 46 12 -7 26 -32 32 -57 15 -59 70 -115 128
-131 92 -25 216 5 282 67 33 31 75 126 59 131 -6 2 -9 8 -6 13 4 5 -1 6 -9 3
-19 -7 -20 -15 7 79 21 70 25 76 40 65 19 -15 57 -115 57 -150 -1 -22 -2 -22
-25 7 -17 21 -25 44 -27 75 l-1 45 -4 -45 c-3 -24 -9 -50 -15 -57 -7 -9 -5
-11 10 -8 25 4 36 -19 21 -46 -6 -11 -8 -25 -5 -32 2 -7 5 -4 5 6 1 18 26 23
36 7 3 -5 11 -10 16 -10 24 0 -30 197 -65 237 -14 15 -26 26 -28 23 -2 -3 -11
-34 -20 -70 -10 -36 -24 -87 -33 -114 -14 -47 -14 -48 5 -43 30 8 25 -22 -10
-71 -87 -120 -259 -145 -363 -53 -20 17 -50 81 -43 89 3 2 43 -26 91 -63 47
-37 88 -66 90 -63 2 2 -17 72 -42 156 -26 84 -44 153 -42 155 2 2 60 46 128
98 l124 94 -69 3 c-38 2 -75 9 -84 16 -8 7 -28 18 -45 23 -21 7 -31 17 -33 34
-2 13 -9 30 -15 37 -7 9 -6 17 6 29 15 15 18 15 35 -1 20 -18 42 -18 55 -1 4
6 10 5 16 -3 11 -18 12 -18 41 -2 26 15 31 17 53 19 9 1 12 14 11 39 -1 20 -3
43 -3 50 -1 6 -12 12 -26 12 -14 0 -25 5 -25 10 0 14 -47 12 -54 -2 -5 -10 -7
-10 -12 0 -7 14 -54 16 -54 2 0 -21 -29 -8 -60 26 -36 42 -36 53 8 150 30 69
61 94 137 113 28 7 58 20 68 28 9 9 17 13 17 8 0 -4 6 -3 13 3 6 5 28 13 47
17 19 4 38 12 42 18 10 16 92 12 118 -6 12 -8 28 -13 35 -10 8 2 24 -3 38 -11
13 -9 32 -14 41 -10 10 4 25 -1 36 -11 11 -10 26 -14 39 -10 11 3 30 1 42 -5
15 -8 24 -9 32 -1 7 7 18 6 36 -3 14 -7 56 -13 94 -14 54 -1 67 1 67 14 0 11
6 13 20 9 32 -10 39 24 9 47 -141 109 -201 162 -304 265 -132 131 -173 165
-255 211 -70 38 -108 46 -159 32 -57 -15 -99 -54 -107 -98 -16 -97 -38 -132
-82 -132 -54 0 -69 22 -77 112 -11 121 -39 165 -114 175 -22 3 -38 9 -35 14 3
5 -2 9 -10 9 -8 0 -17 -4 -20 -9z m112 -54 c26 -20 42 -67 42 -119 0 -73 15
-119 45 -142 14 -10 25 -27 25 -38 0 -24 27 -35 51 -20 10 7 25 9 33 6 16 -6
71 43 80 73 13 42 119 93 192 93 16 0 35 5 42 12 8 8 29 -5 87 -56 64 -58 92
-96 69 -96 -4 0 -37 33 -75 73 -38 39 -69 65 -69 57 0 -8 26 -40 57 -72 36
-37 51 -58 41 -58 -9 0 -39 25 -67 56 -29 31 -55 54 -58 50 -3 -3 13 -26 36
-52 60 -64 41 -70 -20 -5 -28 29 -54 50 -57 47 -3 -4 10 -22 28 -41 18 -19 30
-38 26 -42 -4 -4 -24 13 -45 37 -22 25 -42 42 -45 39 -4 -4 5 -21 19 -38 35
-40 18 -41 -18 0 -25 28 -28 29 -43 15 -13 -13 -14 -19 -4 -32 19 -22 3 -30
-20 -9 -28 26 -34 13 -9 -18 27 -35 13 -35 -23 0 -39 37 -44 24 -7 -20 17 -20
25 -37 19 -37 -7 0 -21 11 -32 25 -11 14 -24 25 -30 25 -6 0 1 -15 16 -34 37
-49 32 -56 -9 -16 -38 37 -47 28 -14 -14 11 -14 16 -26 10 -26 -5 0 -19 12
-30 27 -27 33 -40 23 -17 -13 25 -37 9 -45 -20 -10 -14 15 -28 26 -31 22 -3
-3 2 -15 12 -26 10 -11 15 -23 11 -28 -7 -7 -31 18 -39 42 -2 6 -8 8 -12 4 -4
-4 0 -19 9 -33 14 -21 14 -25 2 -25 -15 0 -56 50 -56 69 0 6 -4 11 -10 11 -5
0 -10 -5 -10 -11 0 -8 -5 -8 -15 1 -8 7 -15 9 -15 5 0 -4 -6 -2 -14 4 -11 9
-16 9 -21 1 -13 -21 -25 5 -31 68 -4 34 -11 59 -15 56 -5 -3 -9 4 -9 16 0 12
-4 18 -10 15 -5 -3 -10 -36 -10 -72 0 -55 2 -64 14 -54 11 9 15 8 20 -5 10
-27 7 -37 -8 -25 -18 15 -65 9 -77 -10 -7 -11 -10 -10 -15 9 -7 26 -19 29 -28
5 -6 -14 -8 -14 -21 3 -14 18 -14 18 -15 1 0 -28 -29 -85 -47 -91 -16 -6 -15
0 2 49 4 13 -4 7 -24 -15 -17 -20 -31 -29 -31 -21 0 8 10 25 22 38 12 13 16
23 9 23 -6 0 -23 -12 -36 -27 -28 -34 -43 -25 -19 11 24 37 10 44 -20 10 -14
-16 -26 -24 -26 -18 0 6 7 17 15 24 8 7 15 20 15 29 0 11 -10 6 -31 -17 -17
-19 -33 -31 -36 -28 -4 3 6 20 22 36 16 16 25 33 22 37 -4 4 -21 -8 -38 -26
-16 -18 -33 -30 -36 -27 -4 3 9 22 27 41 44 45 30 59 -15 15 -39 -37 -47 -33
-14 8 13 17 16 28 9 30 -6 2 -17 -4 -25 -14 -7 -11 -17 -16 -21 -11 -4 4 -2
13 4 19 27 27 9 29 -20 2 -33 -30 -29 -15 5 24 33 36 6 25 -35 -15 -21 -20
-38 -32 -38 -26 0 5 12 22 27 37 14 14 23 30 19 34 -5 4 -25 -12 -45 -35 -20
-24 -40 -43 -44 -43 -15 0 -6 17 24 48 18 18 29 35 25 39 -3 4 -28 -18 -55
-48 -27 -30 -52 -51 -55 -48 -3 3 12 27 35 53 58 66 43 67 -20 1 -29 -30 -57
-55 -63 -55 -16 0 -5 16 50 74 30 31 47 56 40 56 -8 0 -40 -29 -72 -65 -31
-36 -62 -65 -67 -65 -24 0 -3 31 57 86 80 72 94 80 104 64 4 -7 30 -14 58 -15
27 -2 66 -11 86 -20 43 -21 96 -70 96 -90 0 -8 9 -17 20 -20 11 -4 18 -10 15
-15 -10 -16 28 -20 51 -5 25 16 65 21 49 6 -6 -5 -19 -11 -30 -13 -18 -5 -18
-6 -2 -13 25 -10 47 1 47 25 0 11 4 20 8 20 5 0 27 17 50 38 47 44 55 84 27
139 -9 17 -16 48 -18 69 -2 32 1 39 23 45 30 8 90 1 108 -14z m-163 -7 c4 -6
-5 -10 -20 -10 -15 0 -35 -5 -46 -10 -21 -12 -26 -1 -7 18 15 15 64 16 73 2z
m10 -41 c11 -17 2 -18 -25 -4 -24 14 -24 14 -3 15 12 0 25 -5 28 -11z m-246
-12 c13 -6 31 -23 39 -37 12 -20 9 -18 -11 5 -23 27 -31 30 -84 30 -82 0 -157
-40 -261 -139 -45 -43 -86 -76 -90 -72 -4 5 24 37 62 72 67 63 153 120 211
142 41 14 105 14 134 -1z m849 -1 c23 -8 65 -30 94 -49 69 -44 190 -156 182
-168 -3 -5 -45 28 -94 75 -135 128 -229 167 -316 131 -19 -8 -32 -10 -28 -4
18 30 99 37 162 15z m-175 -51 c-3 -9 -8 -14 -10 -11 -3 3 -2 9 2 15 9 16 15
13 8 -4z m-833 -5 c0 -5 -5 -10 -11 -10 -5 0 -7 5 -4 10 3 6 8 10 11 10 2 0 4
-4 4 -10z m1050 0 c0 -5 -4 -10 -10 -10 -5 0 -10 5 -10 10 0 6 5 10 10 10 6 0
10 -4 10 -10z m-905 -30 c3 -5 1 -10 -4 -10 -6 0 -11 5 -11 10 0 6 2 10 4 10
3 0 8 -4 11 -10z m830 -118 c-6 -7 -35 18 -35 31 0 5 9 2 20 -8 11 -10 18 -20
15 -23z m-195 -22 c0 -5 -7 -10 -16 -10 -8 0 -12 5 -9 10 3 6 10 10 16 10 5 0
9 -4 9 -10z m-1050 -45 c-26 -48 -264 -222 -291 -213 -7 2 14 22 46 44 32 21
99 78 149 126 56 54 95 83 100 78 6 -6 4 -19 -4 -35z m372 9 c18 -31 68 -72
68 -57 0 5 4 4 8 -2 10 -14 84 -49 104 -50 9 0 19 -3 23 -7 4 -4 17 -2 28 3
18 10 19 9 13 -16 -8 -32 -47 -95 -70 -114 -29 -25 -31 -1 -3 49 29 52 32 60
19 60 -5 0 -17 -18 -27 -40 -19 -41 -55 -82 -55 -62 0 7 13 33 29 59 17 26 27
50 24 53 -3 3 -10 -3 -17 -14 -6 -10 -24 -37 -41 -60 -22 -31 -30 -37 -33 -24
-2 10 5 30 16 45 28 41 44 73 35 73 -4 0 -23 -23 -42 -50 -32 -46 -51 -62 -51
-41 0 4 14 25 30 46 46 58 35 66 -14 10 -54 -61 -69 -55 -21 8 19 25 35 48 35
51 0 17 -20 0 -53 -44 -36 -48 -57 -62 -57 -39 0 6 16 33 36 60 20 27 31 49
26 49 -5 0 -28 -25 -51 -55 -38 -51 -61 -68 -61 -46 0 4 19 32 41 60 23 29 38
55 34 59 -4 4 -16 -4 -26 -18 -61 -77 -92 -111 -97 -106 -5 6 82 124 101 137
5 4 8 12 5 19 -2 7 -34 -25 -70 -71 -67 -86 -95 -115 -103 -108 -2 3 25 41 60
84 36 44 65 83 65 87 0 19 -18 3 -63 -55 -67 -87 -116 -137 -134 -137 -10 0 0
18 31 53 95 108 119 138 112 144 -4 4 -10 2 -14 -4 -23 -37 -187 -213 -198
-213 -8 0 -14 3 -14 6 0 3 34 42 75 86 42 44 80 89 86 99 17 33 -7 21 -37 -18
-49 -64 -173 -183 -191 -183 -13 0 -8 10 21 39 86 88 166 176 166 184 0 4 -4
7 -10 7 -5 0 -10 -4 -10 -9 0 -14 -221 -230 -242 -237 -41 -13 -29 9 38 69
121 108 189 175 183 182 -4 3 -17 -6 -30 -20 -21 -22 -115 -108 -212 -192 -16
-14 -44 -31 -63 -39 -30 -12 -34 -12 -34 0 0 8 37 39 83 69 87 57 207 167 207
190 0 11 17 14 76 12 42 -1 92 1 112 5 21 3 59 6 86 6 45 0 51 -3 68 -32z
m628 26 c0 -5 -9 -10 -19 -10 -11 0 -23 5 -26 10 -4 6 5 10 19 10 14 0 26 -4
26 -10z m382 -6 c9 -2 19 0 23 6 5 8 11 8 19 0 7 -5 35 -8 62 -6 47 5 50 4 65
-27 18 -35 170 -164 237 -199 38 -21 57 -48 33 -48 -36 0 -92 43 -270 209 -30
28 -57 48 -60 45 -7 -7 167 -172 216 -206 18 -13 33 -29 33 -35 0 -36 -49 -2
-165 115 -70 70 -126 122 -124 115 2 -7 48 -59 102 -117 96 -103 112 -136 38
-77 -20 16 -67 65 -106 110 -38 45 -74 81 -78 81 -13 0 27 -51 104 -134 52
-55 66 -76 52 -76 -15 0 -177 168 -204 212 -5 7 -10 10 -14 7 -6 -7 31 -56
103 -139 33 -36 48 -60 39 -60 -16 0 -98 86 -148 156 -30 40 -49 55 -49 37 0
-5 30 -43 66 -86 36 -43 63 -81 60 -84 -9 -9 -35 17 -103 104 -36 46 -67 83
-69 83 -12 0 2 -24 51 -85 30 -38 55 -74 55 -80 -1 -11 -49 40 -91 95 -15 19
-30 32 -34 28 -4 -3 12 -30 34 -58 23 -29 41 -56 41 -61 0 -20 -36 11 -65 55
-28 43 -45 57 -45 38 0 -5 13 -27 28 -48 43 -60 45 -64 28 -64 -9 0 -32 23
-53 50 -49 66 -66 65 -18 -1 45 -64 36 -79 -14 -21 -47 54 -62 55 -22 0 17
-23 31 -46 31 -50 0 -19 -17 -4 -49 42 -19 28 -38 50 -44 50 -8 0 2 -19 40
-75 7 -11 13 -25 13 -32 0 -26 -19 -12 -51 37 -18 28 -36 50 -41 50 -10 0 -9
-2 29 -63 13 -21 22 -44 20 -50 -3 -11 -59 67 -70 97 -2 6 -8 8 -12 4 -4 -4 4
-27 19 -52 28 -47 32 -66 16 -66 -17 0 -51 80 -48 113 2 24 8 32 23 33 52 1
149 62 197 122 15 18 24 20 85 16 37 -2 75 -7 85 -10z m281 -70 c45 -42 113
-99 152 -127 54 -38 63 -48 40 -43 -61 15 -266 173 -296 227 -23 43 27 16 104
-57z m-969 -9 c-4 -8 -10 -12 -15 -9 -11 6 -2 24 11 24 5 0 7 -7 4 -15z m36 5
c0 -5 -5 -10 -11 -10 -5 0 -7 5 -4 10 3 6 8 10 11 10 2 0 4 -4 4 -10z m100 0
c0 -5 -5 -10 -11 -10 -5 0 -7 5 -4 10 3 6 8 10 11 10 2 0 4 -4 4 -10z m70 -4
c0 -3 -4 -8 -10 -11 -5 -3 -10 -1 -10 4 0 6 5 11 10 11 6 0 10 -2 10 -4z
m-233 -48 c-3 -8 -6 -5 -6 6 -1 11 2 17 5 13 3 -3 4 -12 1 -19z m39 -5 c-10
-10 -19 5 -10 18 6 11 8 11 12 0 2 -7 1 -15 -2 -18z m44 11 c0 -8 -4 -12 -10
-9 -5 3 -10 10 -10 16 0 5 5 9 10 9 6 0 10 -7 10 -16z m57 -6 c-3 -8 -6 -5 -6
6 -1 11 2 17 5 13 3 -3 4 -12 1 -19z m43 18 c0 -3 -4 -8 -10 -11 -5 -3 -10 -1
-10 4 0 6 5 11 10 11 6 0 10 -2 10 -4z m27 -18 c-3 -8 -6 -5 -6 6 -1 11 2 17
5 13 3 -3 4 -12 1 -19z m30 0 c-3 -8 -6 -5 -6 6 -1 11 2 17 5 13 3 -3 4 -12 1
-19z m43 6 c0 -8 -5 -12 -10 -9 -6 4 -8 11 -5 16 9 14 15 11 15 -7z m17 -36
c-3 -8 -6 -5 -6 6 -1 11 2 17 5 13 3 -3 4 -12 1 -19z m-241 -4 c-3 -9 -6 -18
-6 -20 0 -3 -4 -3 -10 1 -11 7 -2 35 12 35 6 0 7 -7 4 -16z m66 -6 c-7 -7 -12
-8 -12 -2 0 6 3 14 7 17 3 4 9 5 12 2 2 -3 -1 -11 -7 -17z m78 1 c0 -5 -4 -9
-10 -9 -5 0 -10 7 -10 16 0 8 5 12 10 9 6 -3 10 -10 10 -16z m30 -1 c0 -18 -2
-20 -9 -8 -6 8 -7 18 -5 22 9 14 14 9 14 -14z m43 1 c4 -16 3 -18 -9 -8 -7 6
-11 15 -8 20 8 13 11 11 17 -12z m-293 7 c0 -3 -4 -8 -10 -11 -5 -3 -10 -1
-10 4 0 6 5 11 10 11 6 0 10 -2 10 -4z m30 -11 c0 -8 -4 -15 -10 -15 -5 0 -10
7 -10 15 0 8 5 15 10 15 6 0 10 -7 10 -15z m80 -1 c0 -8 -5 -12 -10 -9 -6 4
-8 11 -5 16 9 14 15 11 15 -7z m90 -45 c0 -11 -4 -17 -10 -14 -5 3 -10 15 -10
26 0 11 5 17 10 14 6 -3 10 -15 10 -26z m-150 6 c0 -8 -4 -15 -10 -15 -5 0
-10 7 -10 15 0 8 5 15 10 15 6 0 10 -7 10 -15z m107 -7 c-3 -8 -6 -5 -6 6 -1
11 2 17 5 13 3 -3 4 -12 1 -19z m80 -15 c-2 -21 -8 -38 -13 -37 -13 1 -18 34
-5 34 6 0 11 9 11 20 0 11 2 20 5 20 3 0 4 -17 2 -37z m45 5 c-9 -9 -12 -7
-12 12 0 19 3 21 12 12 9 -9 9 -15 0 -24z m35 0 c-3 -7 -5 -2 -5 12 0 14 2 19
5 13 2 -7 2 -19 0 -25z m-374 -28 c-7 -25 -33 -49 -33 -30 0 11 28 50 36 50 1
0 0 -9 -3 -20z m37 10 c0 -5 -5 -10 -11 -10 -5 0 -7 5 -4 10 3 6 8 10 11 10 2
0 4 -4 4 -10z m45 -20 c-5 -8 -11 -8 -17 -2 -6 6 -7 16 -3 22 5 8 11 8 17 2 6
-6 7 -16 3 -22z m45 8 c0 -16 -3 -19 -11 -11 -6 6 -8 16 -5 22 11 17 16 13 16
-11z m200 -4 c0 -8 -4 -12 -10 -9 -5 3 -10 10 -10 16 0 5 5 9 10 9 6 0 10 -7
10 -16z m84 0 c4 -9 4 -19 2 -21 -8 -8 -26 8 -26 23 0 19 16 18 24 -2z m-44
-4 c0 -5 -2 -10 -4 -10 -3 0 -8 5 -11 10 -3 6 -1 10 4 10 6 0 11 -4 11 -10z
m-129 -21 c60 -42 26 -134 -47 -127 -19 2 -34 8 -34 13 1 6 13 9 29 7 39 -4
68 29 55 66 -8 22 -16 28 -46 30 -32 3 -39 -1 -53 -27 -18 -36 -25 -39 -25
-11 0 27 43 70 71 70 11 0 34 -9 50 -21z m-195 -16 c-10 -10 -19 5 -10 18 6
11 8 11 12 0 2 -7 1 -15 -2 -18z m58 2 c-4 -8 -10 -13 -15 -10 -4 3 -6 12 -3
20 4 8 10 13 15 10 4 -3 6 -12 3 -20z m211 -5 c-6 -9 -9 -9 -16 1 -10 17 0 34
13 21 6 -6 7 -16 3 -22z m45 -1 c0 -6 -4 -7 -10 -4 -5 3 -10 11 -10 16 0 6 5
7 10 4 6 -3 10 -11 10 -16z m-290 -24 c0 -8 -4 -15 -10 -15 -5 0 -10 7 -10 15
0 8 5 15 10 15 6 0 10 -7 10 -15z m155 -9 c0 -18 -29 -45 -39 -36 -2 3 -8 18
-11 33 -7 27 -6 28 21 25 21 -2 29 -9 29 -22z m115 -2 c0 -8 -4 -12 -10 -9 -5
3 -10 10 -10 16 0 5 5 9 10 9 6 0 10 -7 10 -16z m-30 -15 c0 -11 -4 -17 -10
-14 -5 3 -10 13 -10 21 0 8 5 14 10 14 6 0 10 -9 10 -21z m-220 -19 c0 -5 -4
-10 -10 -10 -5 0 -10 5 -10 10 0 6 5 10 10 10 6 0 10 -4 10 -10z m53 -7 c-10
-10 -26 -26 -35 -37 -10 -10 -18 -14 -18 -9 0 13 49 63 62 63 5 0 1 -8 -9 -17z
m153 -28 c4 -8 3 -23 0 -32 -6 -15 -8 -15 -16 -3 -13 20 -12 50 0 50 6 0 13
-7 16 -15z m-236 -19 c0 -2 -8 -10 -17 -17 -16 -13 -17 -12 -4 4 13 16 21 21
21 13z m190 -16 c0 -5 -2 -10 -4 -10 -3 0 -8 5 -11 10 -3 6 -1 10 4 10 6 0 11
-4 11 -10z m-180 -15 c0 -8 -4 -15 -10 -15 -5 0 -7 7 -4 15 4 8 8 15 10 15 2
0 4 -7 4 -15z m91 -28 c-13 -13 -15 1 -4 30 7 17 8 17 11 -1 2 -10 -1 -23 -7
-29z m-67 9 c-3 -9 -10 -16 -15 -16 -5 0 -4 9 3 20 14 22 21 20 12 -4z m145
-88 c1 -27 -18 -22 -31 8 l-12 25 -14 -26 c-20 -40 -22 -27 -4 45 l16 64 22
-49 c13 -28 23 -58 23 -67z m-118 59 c-8 -8 -11 -5 -11 9 0 27 14 41 18 19 2
-9 -1 -22 -7 -28z m149 22 c0 -11 -4 -17 -10 -14 -5 3 -10 13 -10 21 0 8 5 14
10 14 6 0 10 -9 10 -21z m-231 -31 c-6 -12 -15 -33 -18 -47 -5 -18 -9 -21 -13
-10 -7 19 17 79 32 79 7 0 7 -7 -1 -22z m107 -25 c-10 -10 -19 5 -10 18 6 11
8 11 12 0 2 -7 1 -15 -2 -18z m-66 11 c0 -13 -21 -44 -30 -44 -11 0 -14 33 -3
43 8 8 33 9 33 1z m250 -35 c0 -6 -4 -7 -10 -4 -5 3 -10 11 -10 16 0 6 5 7 10
4 6 -3 10 -11 10 -16z m-208 -21 c-7 -7 -12 -8 -12 -2 0 6 3 14 7 17 3 4 9 5
12 2 2 -3 -1 -11 -7 -17z m-224 -50 c-2 -35 -7 -63 -13 -63 -5 0 -11 28 -13
63 -2 51 0 62 13 62 13 0 15 -11 13 -62z m70 0 c-2 -35 -7 -63 -13 -63 -5 0
-11 28 -13 63 -2 51 0 62 13 62 13 0 15 -11 13 -62z m480 0 c-2 -35 -7 -63
-13 -63 -5 0 -11 28 -13 63 -2 51 0 62 13 62 13 0 15 -11 13 -62z m70 0 c-2
-35 -7 -63 -13 -63 -5 0 -11 28 -13 63 -2 51 0 62 13 62 13 0 15 -11 13 -62z
m-660 0 c-2 -21 -8 -33 -18 -33 -10 0 -16 12 -18 33 -3 27 0 32 18 32 18 0 21
-5 18 -32z m72 2 c0 -16 -4 -30 -10 -30 -5 0 -10 14 -10 30 0 17 5 30 10 30 6
0 10 -13 10 -30z m83 -2 c-7 -40 -9 -42 -22 -33 -6 3 -11 19 -11 36 0 22 5 29
20 29 17 0 19 -5 13 -32z m28 9 c-10 -9 -11 -8 -5 6 3 10 9 15 12 12 3 -3 0
-11 -7 -18z m123 1 c-15 -50 -44 -59 -44 -14 0 28 7 36 32 36 15 0 18 -5 12
-22z m26 -160 l0 -183 -41 62 -40 61 31 104 c17 56 34 111 36 121 3 9 7 17 10
17 2 0 4 -82 4 -182z m95 171 c4 -5 4 -22 1 -36 -6 -23 -9 -24 -28 -11 -12 8
-25 24 -29 36 -7 19 -5 22 21 22 16 0 32 -5 35 -11z m125 -19 c0 -16 -2 -30
-4 -30 -2 0 -6 14 -8 30 -3 17 -1 30 4 30 4 0 8 -13 8 -30z m70 0 c0 -16 -4
-30 -10 -30 -5 0 -10 14 -10 30 0 17 5 30 10 30 6 0 10 -13 10 -30z m88 -2
c-2 -21 -8 -33 -18 -33 -10 0 -16 12 -18 33 -3 27 0 32 18 32 18 0 21 -5 18
-32z m-278 -86 c-15 -5 -40 17 -40 36 0 12 6 10 26 -9 14 -13 20 -25 14 -27z
m70 28 c0 -5 -2 -10 -4 -10 -3 0 -8 5 -11 10 -3 6 -1 10 4 10 6 0 11 -4 11
-10z m-11 -24 c32 -34 25 -70 -14 -75 -29 -4 -29 -4 -6 -10 40 -11 38 -31 -3
-31 -20 0 -36 4 -36 9 0 5 -3 17 -7 27 -5 12 -3 15 6 9 8 -4 6 4 -4 19 -18 28
-6 37 15 11 7 -8 21 -15 32 -15 27 0 20 42 -9 55 -25 11 -31 25 -10 25 8 0 24
-11 36 -24z m-15 -22 c4 -9 5 -19 3 -21 -8 -8 -37 10 -37 23 0 19 26 18 34 -2z
m64 -72 c3 -9 -2 -13 -14 -10 -9 1 -19 9 -22 16 -3 9 2 13 14 10 9 -1 19 -9
22 -16z m47 -12 c3 -5 2 -10 -4 -10 -5 0 -13 5 -16 10 -3 6 -2 10 4 10 5 0 13
-4 16 -10z m75 -39 c-26 -16 -312 -111 -308 -103 2 4 19 31 38 59 l35 53 125
0 c76 -1 119 -4 110 -9z m-502 -62 c85 -28 150 -55 145 -59 -4 -4 -31 -15 -60
-24 l-52 -17 -43 30 c-78 55 -160 121 -151 121 4 0 77 -23 161 -51z m1101 -63
c9 -10 8 -16 -4 -26 -19 -16 -41 1 -32 24 8 20 21 20 36 2z m-832 -30 l52 -17
26 -82 c62 -192 58 -174 37 -152 -36 38 -195 278 -181 273 8 -3 37 -13 66 -22z
m-616 -30 c5 -23 14 -54 20 -70 9 -29 4 -39 -25 -49 -5 -2 2 -28 16 -59 40
-86 114 -134 226 -144 131 -12 211 41 236 156 3 14 14 31 26 38 19 12 20 10
20 -43 0 -66 -16 -100 -66 -144 -20 -18 -34 -34 -32 -36 2 -2 24 -13 50 -24
l46 -20 4 -70 c1 -39 1 -71 -1 -71 -2 0 -25 13 -50 28 -51 31 -124 55 -221 73
-138 25 -219 99 -284 259 -19 47 -23 66 -15 76 6 8 15 11 20 8 5 -3 6 10 2 28
-8 42 -13 48 -13 15 0 -28 -49 -94 -50 -66 0 18 28 117 41 140 15 29 39 18 50
-25z m502 -107 c-28 -27 -177 -138 -181 -134 -2 1 20 36 48 76 29 41 73 105
98 143 l47 69 3 -68 c2 -55 0 -72 -15 -86z m-173 106 c-13 -14 -30 -25 -38
-25 -12 0 -9 7 8 25 13 14 30 25 38 25 12 0 9 -7 -8 -25z m30 -1 c0 -24 -73
-233 -80 -229 -4 3 -11 -1 -13 -7 -4 -10 -8 -9 -16 2 -8 12 -11 12 -11 1 0
-11 -3 -11 -16 0 -15 12 -16 11 -9 -11 7 -22 6 -23 -9 -11 -18 15 -22 66 -6
76 6 3 10 -4 10 -16 0 -17 3 -19 13 -10 10 8 17 7 25 -1 8 -8 9 -5 5 11 -3 11
-1 21 5 21 6 0 8 8 5 19 -3 12 5 28 23 44 28 26 28 26 3 20 -23 -6 -23 -6 -6
14 9 11 17 25 17 31 0 7 5 12 11 12 6 0 8 -9 4 -22 -5 -18 -4 -20 4 -8 6 8 11
24 11 36 0 11 3 24 7 27 8 9 23 9 23 1z m-77 -40 c9 -10 -4 -34 -19 -34 -16 0
-16 2 -8 24 6 17 16 20 27 10z m-33 -109 c-16 -48 -34 -46 -25 3 8 45 28 74
33 48 2 -9 -2 -32 -8 -51z m1137 -11 c8 -21 -13 -42 -28 -27 -13 13 -5 43 11
43 6 0 13 -7 17 -16z m-932 -26 c-12 -38 -56 -89 -89 -103 -42 -17 -72 -22
-77 -11 -4 8 148 134 164 135 5 1 5 -9 2 -21z m127 -136 c27 -19 22 -27 -22
-42 -36 -12 -45 -11 -76 4 l-36 17 36 35 c20 19 36 40 36 46 0 6 10 -2 22 -18
12 -16 30 -35 40 -42z m423 -59 c-23 -38 -29 -43 -37 -29 -7 12 -1 26 24 56
41 49 48 35 13 -27z m-945 25 c29 -32 40 -68 20 -68 -9 0 -60 79 -60 93 0 13
11 6 40 -25z m1198 -5 c5 -17 -26 -29 -40 -15 -6 6 -7 15 -3 22 9 14 37 9 43
-7z m-773 -168 c16 -13 27 -26 25 -29 -3 -2 -21 9 -40 25 -19 16 -30 29 -25
29 6 -1 23 -12 40 -25z m120 17 c-6 -4 -22 -18 -37 -31 -16 -14 -28 -20 -28
-15 0 5 15 19 33 32 30 21 52 31 32 14z"/>
<path d="M2020 2872 c0 -13 15 -29 37 -40 17 -10 26 -8 45 7 12 11 21 21 18
24 -9 8 -100 17 -100 9z"/>
<path d="M2032 2648 c-20 -43 -23 -76 -6 -82 26 -10 34 3 34 55 0 53 -10 63
-28 27z m11 -63 c-3 -9 -8 -14 -10 -11 -3 3 -2 9 2 15 9 16 15 13 8 -4z"/>
<path d="M2150 2655 c0 -17 34 -84 45 -89 9 -3 6 11 -8 44 -12 27 -25 50 -29
50 -5 0 -8 -2 -8 -5z"/>
<path d="M2125 2618 c4 -18 11 -40 16 -48 7 -13 8 -13 9 1 0 32 -13 79 -22 79
-6 0 -7 -14 -3 -32z"/>
<path d="M1980 2605 c-8 -9 -8 -15 -2 -15 12 0 26 19 19 26 -2 2 -10 -2 -17
-11z"/>
<path d="M1580 1284 c1 -10 83 -77 103 -83 6 -1 1 5 -13 14 -14 10 -40 32 -57
48 -18 17 -33 27 -33 21z"/>
<path d="M678 1953 c-3 -140 -4 -148 -23 -148 -19 0 -20 7 -20 143 l0 142 -63
0 -62 0 2 -327 3 -328 58 -3 57 -3 0 141 0 140 25 0 25 0 0 -155 0 -156 58 3
57 3 3 348 2 347 -60 0 -59 0 -3 -147z"/>
<path d="M3902 1753 l3 -348 58 -3 57 -3 0 151 0 150 50 0 50 0 0 50 0 50 -51
0 -51 0 3 150 4 150 -63 0 -62 0 2 -347z"/>
<path d="M200 2035 l0 -45 105 0 105 0 0 45 0 45 -105 0 -105 0 0 -45z"/>
<path d="M3547 1978 c-12 -150 -60 -270 -142 -355 l-53 -55 41 -29 c22 -16 44
-29 48 -29 19 0 93 90 123 150 l32 65 35 -59 c19 -33 55 -82 80 -109 49 -55
49 -55 109 -4 l34 29 -35 26 c-55 43 -85 81 -121 150 -31 61 -33 72 -32 161 0
53 2 105 5 116 4 18 -2 20 -57 23 l-61 3 -6 -83z"/>
<path d="M1263 1978 c-23 -42 -63 -139 -63 -151 0 -28 26 9 60 88 45 100 43
95 30 95 -5 0 -17 -15 -27 -32z"/>
<path d="M2879 1988 c41 -100 72 -163 82 -167 8 -2 10 5 5 25 -11 43 -70 157
-84 162 -9 3 -10 -3 -3 -20z"/>
<path d="M120 1910 l0 -50 180 0 180 0 0 50 0 50 -180 0 -180 0 0 -50z"/>
<path d="M1114 1830 c4 -28 9 -58 13 -68 5 -14 3 -13 -11 3 -15 18 -15 17 0
-17 14 -30 21 -35 34 -28 16 9 16 14 -3 85 -23 86 -43 101 -33 25z"/>
<path d="M3026 1804 c-10 -41 -16 -77 -13 -80 9 -10 36 8 35 24 0 9 3 43 7 75
11 83 -8 71 -29 -19z"/>
<path d="M215 1826 c-113 -50 -128 -215 -27 -291 21 -16 43 -20 99 -20 77 0
106 13 147 69 30 39 30 143 0 183 -44 61 -150 90 -219 59z m108 -91 c44 -43
21 -135 -32 -135 -33 0 -49 15 -57 57 -13 66 48 119 89 78z"/>
<path d="M1278 1788 c-54 -72 -97 -161 -69 -144 14 9 104 166 99 172 -3 2 -16
-10 -30 -28z"/>
<path d="M2860 1815 c0 -6 11 -26 24 -46 13 -19 34 -56 46 -82 12 -26 26 -47
31 -47 16 0 10 22 -22 78 -32 57 -79 114 -79 97z"/>
<path d="M1020 1796 c0 -7 16 -44 34 -82 22 -44 31 -71 24 -75 -7 -4 -7 -9 1
-13 6 -4 11 -2 11 3 0 6 7 11 15 11 21 0 19 17 -5 51 -12 15 -30 49 -41 74
-19 44 -39 59 -39 31z"/>
<path d="M3092 1729 c-43 -80 -46 -97 -19 -86 16 6 62 95 73 140 12 50 -10 28
-54 -54z"/>
<path d="M1200 1755 c-6 -8 -10 -19 -8 -26 2 -6 9 0 16 15 13 29 10 33 -8 11z"/>
<path d="M1287 1603 c-43 -92 -52 -123 -38 -123 10 0 25 27 70 134 23 53 25
66 13 66 -4 0 -24 -35 -45 -77z"/>
<path d="M2830 1673 c0 -21 79 -188 90 -191 9 -3 11 3 6 24 -11 44 -75 174
-86 174 -6 0 -10 -3 -10 -7z"/>
<path d="M1155 1638 c8 -41 -7 -57 -32 -36 -14 12 -15 11 -5 -7 6 -11 21 -33
34 -48 l23 -29 30 28 29 27 -27 23 c-15 13 -27 28 -27 34 0 6 -7 19 -16 27
-14 14 -15 13 -9 -19z m42 -54 c8 -21 -13 -42 -28 -27 -13 13 -5 43 11 43 6 0
13 -7 17 -16z"/>
<path d="M1040 1594 c0 -11 87 -128 114 -153 52 -49 36 -10 -30 73 -61 77 -84
99 -84 80z"/>
<path d="M3047 1515 c-65 -83 -79 -125 -20 -62 39 42 103 128 103 138 0 22
-21 3 -83 -76z"/>
<path d="M1195 1480 c3 -5 8 -10 11 -10 2 0 4 5 4 10 0 6 -5 10 -11 10 -5 0
-7 -4 -4 -10z"/>
<path d="M1335 1438 c-8 -69 -3 -168 10 -171 6 -1 11 42 13 111 3 117 -11 154
-23 60z"/>
<path d="M2812 1380 c4 -142 23 -149 23 -8 0 66 -4 101 -13 110 -10 10 -12 -9
-10 -102z"/>
<path d="M1210 1426 c8 -37 -4 -70 -23 -61 -7 4 9 -13 34 -37 26 -24 59 -62
74 -85 35 -54 42 -55 15 -3 -11 21 -20 47 -20 57 0 13 -2 15 -9 5 -6 -10 -10
-10 -21 2 -10 13 -9 17 4 22 23 9 22 64 -2 64 -23 0 -42 19 -42 41 0 10 -4 20
-9 23 -5 4 -6 -8 -1 -28z m53 -60 c8 -20 -20 -43 -35 -28 -14 14 -3 42 16 42
7 0 16 -6 19 -14z"/>
<path d="M2891 1414 c0 -11 3 -14 6 -6 3 7 2 16 -1 19 -3 4 -6 -2 -5 -13z"/>
<path d="M2616 1343 c-6 -14 -5 -15 5 -6 7 7 10 15 7 18 -3 3 -9 -2 -12 -12z"/>
<path d="M1110 1342 c0 -18 122 -122 143 -122 17 0 1 18 -65 74 -66 56 -78 63
-78 48z"/>
<path d="M2978 1290 c-37 -33 -64 -62 -59 -64 11 -7 75 40 120 88 56 58 13 41
-61 -24z"/>
<path d="M2580 1285 c-7 -9 -10 -18 -7 -21 3 -3 10 4 17 15 13 25 8 27 -10 6z"/>
<path d="M2544 1249 c-3 -6 -20 -19 -38 -30 -17 -10 -27 -19 -23 -19 15 0 66
34 71 47 6 16 0 17 -10 2z"/>
<path d="M1456 1241 c-7 -11 1 -81 16 -129 17 -58 28 -20 15 55 -13 73 -20 92
-31 74z"/>
<path d="M2696 1228 c-3 -13 -7 -37 -10 -54 -3 -18 -8 -43 -12 -58 -8 -33 13
-36 25 -3 15 39 23 137 12 137 -6 0 -13 -10 -15 -22z"/>
<path d="M1422 1212 c-2 -21 -6 -23 -31 -17 -17 3 -32 2 -36 -5 -3 -5 -10 -8
-14 -5 -5 2 -8 -6 -8 -19 0 -17 10 -30 39 -46 42 -23 77 -57 78 -75 0 -5 -30
-13 -67 -16 l-68 -5 77 -2 c42 -1 80 -6 83 -12 18 -29 77 4 68 38 -6 24 -50
31 -69 12 -20 -20 -39 21 -45 99 -3 42 -6 66 -7 53z m-24 -49 c5 -17 -26 -29
-40 -15 -6 6 -7 15 -3 22 9 14 37 9 43 -7z m17 -51 c-8 -8 -25 10 -19 20 4 6
9 5 15 -3 4 -7 6 -15 4 -17z m104 -66 c9 -10 8 -16 -4 -26 -19 -16 -41 1 -32
24 8 20 21 20 36 2z"/>
<path d="M1180 1141 c0 -12 160 -91 184 -91 48 0 1 27 -171 97 -7 3 -13 0 -13
-6z"/>
<path d="M2892 1110 c-93 -42 -118 -60 -85 -60 26 0 183 78 183 91 0 13 -6 11
-98 -31z"/>
<path d="M1570 1111 c0 -34 31 -106 55 -129 14 -13 25 -27 25 -31 0 -11 -48
-23 -60 -16 -6 4 -10 2 -10 -3 0 -6 -24 -16 -52 -23 -29 -7 -48 -14 -42 -16 6
-2 64 10 128 27 l118 30 39 -35 c22 -19 42 -35 47 -35 4 0 -15 20 -42 45 -27
24 -54 41 -59 38 -6 -3 -7 -2 -4 4 4 6 0 18 -7 29 -12 15 -18 16 -39 7 -24
-11 -26 -9 -46 31 -11 24 -23 56 -27 70 -7 30 -24 35 -24 7z m126 -132 c3 -6
1 -16 -4 -21 -13 -13 -45 8 -36 23 7 12 31 11 40 -2z"/>
<path d="M2585 1115 c-44 -107 -56 -128 -67 -117 -7 7 -20 12 -30 12 -19 0
-41 -33 -30 -45 4 -5 2 -5 -5 -1 -6 3 -15 2 -18 -4 -4 -6 -29 -29 -57 -50 -27
-22 -46 -40 -42 -40 4 0 29 18 55 40 l47 39 138 -34 c75 -19 139 -33 142 -31
4 4 -26 14 -100 32 -16 3 -28 10 -28 14 0 4 -6 8 -12 7 -63 -2 -72 11 -33 45
27 23 59 107 52 135 -3 16 -5 16 -12 -2z m-71 -133 c9 -14 -10 -33 -27 -26
-18 6 -21 16 -10 27 9 9 31 9 37 -1z"/>
<path d="M2631 1075 c-1 -11 -4 -30 -7 -43 -4 -13 -3 -22 2 -21 5 1 17 -1 28
-6 11 -5 26 -3 37 3 10 7 51 13 91 14 l73 2 -68 3 c-54 3 -70 8 -80 23 -7 12
-23 20 -39 20 -14 0 -29 6 -31 13 -3 6 -6 3 -6 -8z m56 -31 c9 -23 -13 -40
-32 -24 -12 10 -13 16 -4 26 15 18 28 18 36 -2z"/>
<path d="M1719 1036 c57 -61 232 -141 290 -133 21 2 -6 19 -129 80 -166 82
-198 93 -161 53z m137 -62 c18 -14 18 -14 -6 -3 -31 14 -36 19 -24 19 6 0 19
-7 30 -16z"/>
<path d="M2290 983 c-123 -61 -149 -78 -129 -81 33 -4 135 30 203 68 58 33
119 90 95 90 -8 0 -84 -35 -169 -77z"/>
<path d="M839 1043 c0 -5 0 -58 1 -120 l1 -112 -38 -6 c-76 -13 -268 -57 -282
-65 -10 -5 -2 -15 30 -37 71 -48 284 -157 412 -209 l117 -49 0 -97 c0 -113 -7
-104 123 -142 120 -35 319 -73 472 -91 177 -20 645 -20 820 0 196 23 465 80
558 118 l37 16 0 99 0 99 73 28 c172 67 500 240 494 260 -3 9 -105 34 -270 66
l-59 11 3 116 c3 134 11 128 -96 77 -112 -53 -191 -85 -335 -136 l-135 -47 -3
-90 -3 -90 -57 -11 c-194 -37 -310 -46 -617 -45 -306 0 -426 9 -617 45 l-57
11 -3 90 -3 90 -161 57 c-88 32 -214 83 -279 114 -127 61 -125 61 -126 50z
m162 -141 c46 -22 118 -51 159 -66 41 -15 84 -31 95 -36 11 -5 34 -13 50 -18
28 -8 30 -12 33 -67 l3 -57 -38 7 c-32 6 -169 46 -210 62 -10 4 -13 -17 -13
-100 l0 -106 -92 38 c-143 59 -309 141 -304 150 3 5 58 17 121 27 l115 18 -6
93 c-4 51 -5 93 -2 93 3 0 43 -17 89 -38z m2258 -54 l-4 -93 112 -20 c61 -11
115 -23 119 -27 11 -12 -350 -178 -385 -178 -7 0 -11 35 -11 101 0 92 -2 101
-17 94 -39 -14 -217 -65 -230 -65 -11 0 -13 13 -11 56 l3 56 105 38 c118 43
231 89 275 113 17 9 34 16 39 17 4 0 6 -42 5 -92z m-1986 -242 c246 -66 462
-90 807 -90 349 0 552 22 800 86 63 16 122 30 130 31 13 2 15 -23 15 -166 0
-100 -4 -172 -10 -177 -5 -4 -66 -22 -135 -39 -500 -124 -1113 -121 -1615 7
l-110 28 -3 178 c-2 156 -1 178 13 172 8 -3 57 -16 108 -30z"/>
<path d="M2948 569 c-10 -6 -18 -20 -19 -32 0 -12 -4 -31 -8 -42 -8 -18 -10
-16 -27 18 -15 31 -22 37 -39 32 -11 -4 -32 -9 -47 -12 -25 -5 -27 -9 -33 -72
-9 -93 -10 -94 -29 -15 -16 67 -19 71 -42 66 l-25 -5 7 -111 c7 -122 8 -126
31 -126 13 0 15 10 11 63 -5 62 -5 62 8 22 7 -22 13 -48 13 -57 1 -11 9 -18
20 -18 15 0 20 11 27 53 l8 52 4 -47 c3 -40 6 -48 23 -48 18 0 20 5 15 43 -11
86 -18 197 -12 197 14 0 76 -143 76 -175 0 -29 4 -35 21 -35 20 0 21 4 14 45
-4 29 0 72 10 120 19 85 18 98 -7 84z"/>
<path d="M1231 470 c-14 -128 -14 -140 3 -140 16 0 26 30 26 77 0 57 17 44 30
-22 12 -63 33 -97 49 -79 9 11 34 224 27 231 -15 16 -36 -10 -37 -44 -1 -75
-15 -81 -29 -12 -14 68 -25 89 -45 89 -8 0 -16 -33 -24 -100z"/>
<path d="M1425 508 c-3 -7 -20 -59 -39 -115 -33 -99 -34 -103 -14 -103 11 0
22 8 25 20 9 35 63 21 63 -16 0 -18 5 -24 21 -24 24 0 24 -9 -2 173 -10 65
-14 77 -30 77 -11 0 -22 -6 -24 -12z m25 -114 c0 -23 -14 -32 -24 -16 -8 13 5
52 15 46 5 -3 9 -16 9 -30z"/>
<path d="M1520 480 c0 -19 12 -113 26 -197 3 -22 10 -33 22 -33 13 0 25 26 50
113 18 61 32 115 32 120 0 4 -8 7 -18 7 -15 0 -22 -13 -32 -57 -19 -88 -27
-95 -35 -28 -3 33 -7 67 -8 75 -4 25 -37 25 -37 0z"/>
<path d="M2583 493 c-32 -4 -33 -6 -33 -51 l0 -47 -18 35 c-16 33 -21 35 -69
38 l-53 3 0 -64 c0 -35 3 -91 6 -124 l7 -61 41 5 c52 7 66 20 82 80 l13 48 0
-52 c1 -28 4 -54 9 -56 4 -2 31 1 60 6 45 7 52 12 52 32 0 21 -3 23 -39 18
-34 -5 -39 -3 -44 18 -7 27 6 39 46 39 24 0 28 4 25 23 -3 19 -8 22 -40 19
-32 -2 -38 0 -38 17 0 14 9 22 28 27 48 10 52 13 52 34 0 21 -10 22 -87 13z
m-79 -96 c12 -44 6 -87 -14 -107 -12 -12 -25 -18 -30 -15 -15 9 -13 142 3 148
20 7 35 -3 41 -26z"/>
<path d="M1700 476 c0 -5 -58 -199 -65 -218 -5 -14 -2 -18 13 -18 12 0 23 9
27 20 4 14 15 20 36 20 24 0 29 -4 29 -25 0 -28 14 -33 105 -37 55 -3 60 -1
63 19 3 19 -2 22 -35 25 l-38 3 2 98 c1 90 0 97 -18 97 -17 0 -19 -8 -20 -67
0 -38 -4 -88 -8 -113 l-7 -45 -12 65 c-6 36 -14 85 -18 110 -3 25 -13 51 -22
58 -15 11 -32 16 -32 8z m24 -118 c5 -21 3 -28 -9 -28 -17 0 -18 4 -9 38 8 27
9 26 18 -10z"/>
<path d="M2148 437 c-30 -28 -43 -88 -33 -149 8 -43 43 -88 70 -88 23 0 65 49
65 76 0 32 -28 31 -40 -1 -10 -27 -17 -30 -39 -16 -18 11 -25 89 -12 124 12
32 41 36 48 7 7 -27 43 -27 43 0 0 24 -42 70 -63 70 -8 0 -25 -11 -39 -23z"/>
<path d="M2306 452 c-4 -7 -46 -219 -46 -234 0 -5 9 -8 19 -8 12 0 21 8 23 21
2 12 13 26 26 30 19 7 25 4 34 -16 13 -29 52 -36 44 -7 -3 9 -17 63 -32 120
-22 81 -31 102 -45 102 -10 0 -20 -3 -23 -8z m34 -118 c0 -14 -5 -24 -11 -22
-6 2 -10 7 -10 11 1 4 1 16 1 28 0 11 5 17 10 14 6 -3 10 -18 10 -31z"/>
<path d="M1992 352 c-12 -53 -25 -107 -28 -119 -5 -18 -2 -23 12 -23 11 0 24
10 29 23 15 33 53 35 61 3 4 -17 13 -26 26 -26 16 0 19 5 14 23 -3 12 -15 66
-27 120 -20 85 -25 97 -43 97 -18 0 -24 -13 -44 -98z m58 -34 c0 -10 -7 -18
-15 -18 -17 0 -18 4 -8 38 4 18 8 20 14 10 5 -7 9 -21 9 -30z"/>
<path d="M1908 1033 c7 -3 16 -2 19 1 4 3 -2 6 -13 5 -11 0 -14 -3 -6 -6z"/>
<path d="M1287 969 c12 -12 144 -36 191 -35 63 2 31 21 -55 33 -117 15 -150
16 -136 2z"/>
<path d="M2742 966 c-77 -10 -108 -27 -63 -34 30 -5 192 25 204 37 14 14 -26
13 -141 -3z"/>
<path d="M1615 871 c-97 -6 -102 -14 -17 -26 72 -10 162 2 162 21 0 9 -9 13
-27 12 -16 -1 -68 -4 -118 -7z"/>
<path d="M2414 868 c-12 -19 9 -23 111 -23 92 1 128 7 114 19 -10 9 -220 13
-225 4z"/>
</g>
</svg>
